<svg width="600" height="340" viewBox="0 0 600 340" xmlns="http://www.w3.org/2000/svg">
  <rect width="600" height="340" fill="#000000"/>
  <rect x="10" y="10" width="580" height="320" fill="none" stroke="#ffffff" stroke-width="2" stroke-dasharray="4,4"/>
  
  <!-- Grid Matrix Wireframe -->
  <line x1="40" y1="260" x2="340" y2="260" stroke="#444444" stroke-width="2"/>
  <line x1="40" y1="200" x2="340" y2="200" stroke="#222222" stroke-width="1"/>
  <line x1="40" y1="140" x2="340" y2="140" stroke="#222222" stroke-width="1"/>
  <line x1="40" y1="80" x2="340" y2="80" stroke="#222222" stroke-width="1"/>
  
  <!-- Histogram bars -->
  <rect x="60" y="180" width="36" height="80" fill="#ffffff" opacity="0.3"/>
  <rect x="110" y="140" width="36" height="120" fill="#ffffff" opacity="0.5"/>
  <rect x="160" y="100" width="36" height="160" fill="#ffffff" opacity="0.8"/>
  <rect x="210" y="60" width="36" height="200" fill="#ffffff"/>
  <rect x="260" y="120" width="36" height="140" fill="#ffffff" opacity="0.6"/>

  <!-- Stepped Telemetry Line -->
  <polyline points="60,160 110,120 160,80 210,40 260,100 310,60" stroke="#ffffff" stroke-width="3" fill="none"/>
  
  <!-- Technical Labels -->
  <text x="380" y="100" font-family="monospace" font-size="20" font-weight="700" fill="#ffffff">[FINANCE_HUB]</text>
  <text x="380" y="130" font-family="monospace" font-size="12" fill="#888888">// FISCAL_LEDGER_ENGINE</text>
  <text x="380" y="160" font-family="monospace" font-size="11" fill="#666666">STACK: HTML / CSS / JS / MYSQL</text>
  <text x="380" y="190" font-family="monospace" font-size="11" fill="#666666">AUTH: RELATIONAL_SCHEMA</text>
  <text x="380" y="240" font-family="monospace" font-size="12" font-weight="700" fill="#ffffff">[STATUS: DEPLOYED]</text>
</svg>
